<mxfile host="app.diagrams.net" agent="Mozilla/5.0 (Windows NT 10.0; Win64; x64) AppleWebKit/537.36 (KHTML, like Gecko) Chrome/135.0.0.0 Safari/537.36" version="27.0.1" pages="2">
  <diagram name="Login" id="13e1069c-82ec-6db2-03f1-153e76fe0fe0">
    <mxGraphModel dx="3162" dy="1269" grid="1" gridSize="10" guides="1" tooltips="1" connect="1" arrows="1" fold="1" page="1" pageScale="1" pageWidth="1100" pageHeight="850" background="none" math="0" shadow="0">
      <root>
        <mxCell id="0" />
        <mxCell id="1" parent="0" />
        <mxCell id="thnWwaF9GRpizmgEsYbi-1" value="Data User" style="ellipse;shape=umlEntity;whiteSpace=wrap;html=1;" vertex="1" parent="1">
          <mxGeometry x="-487" y="271" width="80" height="80" as="geometry" />
        </mxCell>
        <mxCell id="thnWwaF9GRpizmgEsYbi-2" value="Halaman Login" style="shape=umlBoundary;whiteSpace=wrap;html=1;" vertex="1" parent="1">
          <mxGeometry x="-787" y="271" width="100" height="80" as="geometry" />
        </mxCell>
        <mxCell id="thnWwaF9GRpizmgEsYbi-3" value="Login Function" style="ellipse;shape=umlControl;whiteSpace=wrap;html=1;" vertex="1" parent="1">
          <mxGeometry x="-637" y="261" width="78.75" height="90" as="geometry" />
        </mxCell>
        <mxCell id="thnWwaF9GRpizmgEsYbi-4" value="Dashboard" style="shape=umlBoundary;whiteSpace=wrap;html=1;" vertex="1" parent="1">
          <mxGeometry x="-344" y="271" width="100" height="80" as="geometry" />
        </mxCell>
        <mxCell id="thnWwaF9GRpizmgEsYbi-5" value="" style="html=1;points=[];perimeter=orthogonalPerimeter;rounded=0;shadow=0;comic=0;labelBackgroundColor=none;strokeWidth=1;fontFamily=Verdana;fontSize=12;align=center;" vertex="1" parent="1">
          <mxGeometry x="-734" y="360" width="10" height="220" as="geometry" />
        </mxCell>
        <mxCell id="thnWwaF9GRpizmgEsYbi-6" value="" style="html=1;points=[];perimeter=orthogonalPerimeter;rounded=0;shadow=0;comic=0;labelBackgroundColor=none;strokeWidth=1;fontFamily=Verdana;fontSize=12;align=center;" vertex="1" parent="1">
          <mxGeometry x="-604" y="360" width="10" height="220" as="geometry" />
        </mxCell>
        <mxCell id="thnWwaF9GRpizmgEsYbi-7" value="" style="html=1;points=[];perimeter=orthogonalPerimeter;rounded=0;shadow=0;comic=0;labelBackgroundColor=none;strokeWidth=1;fontFamily=Verdana;fontSize=12;align=center;" vertex="1" parent="1">
          <mxGeometry x="-449" y="360" width="10" height="220" as="geometry" />
        </mxCell>
        <mxCell id="thnWwaF9GRpizmgEsYbi-8" value="" style="html=1;points=[];perimeter=orthogonalPerimeter;rounded=0;shadow=0;comic=0;labelBackgroundColor=none;strokeWidth=1;fontFamily=Verdana;fontSize=12;align=center;" vertex="1" parent="1">
          <mxGeometry x="-294" y="360" width="10" height="220" as="geometry" />
        </mxCell>
        <mxCell id="thnWwaF9GRpizmgEsYbi-10" value="username,&lt;div&gt;password&lt;/div&gt;" style="html=1;verticalAlign=bottom;endArrow=block;labelBackgroundColor=none;fontFamily=Verdana;fontSize=12;elbow=vertical;exitX=0.5;exitY=0.5;exitDx=0;exitDy=0;exitPerimeter=0;" edge="1" parent="1">
          <mxGeometry relative="1" as="geometry">
            <mxPoint x="-839" y="390" as="sourcePoint" />
            <mxPoint x="-735" y="390" as="targetPoint" />
          </mxGeometry>
        </mxCell>
        <mxCell id="thnWwaF9GRpizmgEsYbi-11" value="sendData()" style="html=1;verticalAlign=bottom;endArrow=block;entryX=0.035;entryY=0.127;labelBackgroundColor=none;fontFamily=Verdana;fontSize=12;elbow=vertical;entryDx=0;entryDy=0;entryPerimeter=0;" edge="1" parent="1">
          <mxGeometry relative="1" as="geometry">
            <mxPoint x="-723.9999999999999" y="400.2099999999999" as="sourcePoint" />
            <mxPoint x="-603.6500000000001" y="400.2099999999999" as="targetPoint" />
          </mxGeometry>
        </mxCell>
        <mxCell id="thnWwaF9GRpizmgEsYbi-12" value="validate()" style="html=1;verticalAlign=bottom;endArrow=block;entryX=0.287;entryY=0.153;labelBackgroundColor=none;fontFamily=Verdana;fontSize=12;elbow=vertical;exitX=0.862;exitY=0.154;exitDx=0;exitDy=0;exitPerimeter=0;entryDx=0;entryDy=0;entryPerimeter=0;" edge="1" parent="1">
          <mxGeometry relative="1" as="geometry">
            <mxPoint x="-595.3800000000001" y="413.41999999999996" as="sourcePoint" />
            <mxPoint x="-446.1300000000001" y="413.19000000000005" as="targetPoint" />
          </mxGeometry>
        </mxCell>
        <mxCell id="thnWwaF9GRpizmgEsYbi-13" value="data invalid" style="html=1;verticalAlign=bottom;endArrow=block;entryX=1.041;entryY=0.393;labelBackgroundColor=none;fontFamily=Verdana;fontSize=12;elbow=vertical;entryDx=0;entryDy=0;entryPerimeter=0;" edge="1" parent="1">
          <mxGeometry relative="1" as="geometry">
            <mxPoint x="-449" y="511.2700000000001" as="sourcePoint" />
            <mxPoint x="-593.59" y="511.2700000000001" as="targetPoint" />
          </mxGeometry>
        </mxCell>
        <mxCell id="thnWwaF9GRpizmgEsYbi-14" value="message error" style="html=1;verticalAlign=bottom;endArrow=block;entryX=0.897;entryY=0.769;labelBackgroundColor=none;fontFamily=Verdana;fontSize=12;elbow=vertical;entryDx=0;entryDy=0;entryPerimeter=0;exitX=0.076;exitY=0.463;exitDx=0;exitDy=0;exitPerimeter=0;" edge="1" parent="1" target="thnWwaF9GRpizmgEsYbi-5">
          <mxGeometry x="-0.0021" relative="1" as="geometry">
            <mxPoint x="-603.24" y="528.49" as="sourcePoint" />
            <mxPoint x="-724.55" y="523.86" as="targetPoint" />
            <mxPoint as="offset" />
          </mxGeometry>
        </mxCell>
        <mxCell id="thnWwaF9GRpizmgEsYbi-15" value="showMessage()" style="html=1;verticalAlign=bottom;endArrow=block;labelBackgroundColor=none;fontFamily=Verdana;fontSize=12;elbow=vertical;exitX=0.174;exitY=0.544;exitDx=0;exitDy=0;exitPerimeter=0;" edge="1" parent="1">
          <mxGeometry relative="1" as="geometry">
            <mxPoint x="-732.26" y="552.6800000000001" as="sourcePoint" />
            <mxPoint x="-846.2692307692306" y="552.6800000000001" as="targetPoint" />
          </mxGeometry>
        </mxCell>
        <mxCell id="thnWwaF9GRpizmgEsYbi-16" value="data valid" style="html=1;verticalAlign=bottom;endArrow=block;labelBackgroundColor=none;fontFamily=Verdana;fontSize=12;elbow=vertical;exitX=0.829;exitY=0.332;exitDx=0;exitDy=0;exitPerimeter=0;" edge="1" parent="1">
          <mxGeometry relative="1" as="geometry">
            <mxPoint x="-439" y="488.9999999999999" as="sourcePoint" />
            <mxPoint x="-294" y="489" as="targetPoint" />
          </mxGeometry>
        </mxCell>
        <mxCell id="thnWwaF9GRpizmgEsYbi-20" value="" style="shape=umlLifeline;perimeter=lifelinePerimeter;whiteSpace=wrap;html=1;container=1;dropTarget=0;collapsible=0;recursiveResize=0;outlineConnect=0;portConstraint=eastwest;newEdgeStyle={&quot;curved&quot;:0,&quot;rounded&quot;:0};participant=umlActor;" vertex="1" parent="1">
          <mxGeometry x="-856" y="360" width="20" height="230" as="geometry" />
        </mxCell>
        <mxCell id="thnWwaF9GRpizmgEsYbi-22" value="check data" style="edgeStyle=elbowEdgeStyle;endArrow=classic;html=1;rounded=0;endSize=8;startSize=8;entryX=0.998;entryY=0.183;entryDx=0;entryDy=0;entryPerimeter=0;" edge="1" parent="1">
          <mxGeometry x="-0.0048" y="10" width="50" height="50" relative="1" as="geometry">
            <mxPoint x="-434" y="426" as="sourcePoint" />
            <mxPoint x="-439" y="461.68" as="targetPoint" />
            <Array as="points">
              <mxPoint x="-383.98" y="460.31" />
            </Array>
            <mxPoint as="offset" />
          </mxGeometry>
        </mxCell>
      </root>
    </mxGraphModel>
  </diagram>
  <diagram name="Register" id="eE4vHsgGRa6b4lxk4aci">
    <mxGraphModel dx="2426" dy="816" grid="1" gridSize="10" guides="1" tooltips="1" connect="1" arrows="1" fold="1" page="1" pageScale="1" pageWidth="1100" pageHeight="850" background="none" math="0" shadow="0">
      <root>
        <mxCell id="wX_KruKhVf-HRECVG9bM-0" />
        <mxCell id="wX_KruKhVf-HRECVG9bM-1" parent="wX_KruKhVf-HRECVG9bM-0" />
        <mxCell id="wX_KruKhVf-HRECVG9bM-2" value="Data User" style="ellipse;shape=umlEntity;whiteSpace=wrap;html=1;" vertex="1" parent="wX_KruKhVf-HRECVG9bM-1">
          <mxGeometry x="-500" y="271" width="80" height="80" as="geometry" />
        </mxCell>
        <mxCell id="wX_KruKhVf-HRECVG9bM-3" value="Halaman register" style="shape=umlBoundary;whiteSpace=wrap;html=1;" vertex="1" parent="wX_KruKhVf-HRECVG9bM-1">
          <mxGeometry x="-787" y="271" width="100" height="80" as="geometry" />
        </mxCell>
        <mxCell id="wX_KruKhVf-HRECVG9bM-4" value="Register Function" style="ellipse;shape=umlControl;whiteSpace=wrap;html=1;" vertex="1" parent="wX_KruKhVf-HRECVG9bM-1">
          <mxGeometry x="-637" y="261" width="78.75" height="90" as="geometry" />
        </mxCell>
        <mxCell id="wX_KruKhVf-HRECVG9bM-6" value="" style="html=1;points=[];perimeter=orthogonalPerimeter;rounded=0;shadow=0;comic=0;labelBackgroundColor=none;strokeWidth=1;fontFamily=Verdana;fontSize=12;align=center;" vertex="1" parent="wX_KruKhVf-HRECVG9bM-1">
          <mxGeometry x="-734" y="360" width="10" height="220" as="geometry" />
        </mxCell>
        <mxCell id="wX_KruKhVf-HRECVG9bM-7" value="" style="html=1;points=[];perimeter=orthogonalPerimeter;rounded=0;shadow=0;comic=0;labelBackgroundColor=none;strokeWidth=1;fontFamily=Verdana;fontSize=12;align=center;" vertex="1" parent="wX_KruKhVf-HRECVG9bM-1">
          <mxGeometry x="-604" y="360" width="10" height="220" as="geometry" />
        </mxCell>
        <mxCell id="wX_KruKhVf-HRECVG9bM-8" value="" style="html=1;points=[];perimeter=orthogonalPerimeter;rounded=0;shadow=0;comic=0;labelBackgroundColor=none;strokeWidth=1;fontFamily=Verdana;fontSize=12;align=center;" vertex="1" parent="wX_KruKhVf-HRECVG9bM-1">
          <mxGeometry x="-465" y="360" width="10" height="220" as="geometry" />
        </mxCell>
        <mxCell id="wX_KruKhVf-HRECVG9bM-10" value="username,&lt;div&gt;password,&lt;/div&gt;&lt;div&gt;email&lt;/div&gt;" style="html=1;verticalAlign=bottom;endArrow=block;labelBackgroundColor=none;fontFamily=Verdana;fontSize=12;elbow=vertical;exitX=0.5;exitY=0.5;exitDx=0;exitDy=0;exitPerimeter=0;" edge="1" parent="wX_KruKhVf-HRECVG9bM-1">
          <mxGeometry relative="1" as="geometry">
            <mxPoint x="-839" y="390" as="sourcePoint" />
            <mxPoint x="-735" y="390" as="targetPoint" />
          </mxGeometry>
        </mxCell>
        <mxCell id="wX_KruKhVf-HRECVG9bM-11" value="sendData()" style="html=1;verticalAlign=bottom;endArrow=block;entryX=0.035;entryY=0.127;labelBackgroundColor=none;fontFamily=Verdana;fontSize=12;elbow=vertical;entryDx=0;entryDy=0;entryPerimeter=0;" edge="1" parent="wX_KruKhVf-HRECVG9bM-1">
          <mxGeometry relative="1" as="geometry">
            <mxPoint x="-723.9999999999999" y="400.2099999999999" as="sourcePoint" />
            <mxPoint x="-603.6500000000001" y="400.2099999999999" as="targetPoint" />
          </mxGeometry>
        </mxCell>
        <mxCell id="wX_KruKhVf-HRECVG9bM-14" value="data invalid" style="html=1;verticalAlign=bottom;endArrow=block;entryX=0.897;entryY=0.769;labelBackgroundColor=none;fontFamily=Verdana;fontSize=12;elbow=vertical;entryDx=0;entryDy=0;entryPerimeter=0;exitX=0.076;exitY=0.463;exitDx=0;exitDy=0;exitPerimeter=0;" edge="1" parent="wX_KruKhVf-HRECVG9bM-1" target="wX_KruKhVf-HRECVG9bM-6">
          <mxGeometry x="-0.0021" relative="1" as="geometry">
            <mxPoint x="-603.24" y="528.49" as="sourcePoint" />
            <mxPoint x="-724.55" y="523.86" as="targetPoint" />
            <mxPoint as="offset" />
          </mxGeometry>
        </mxCell>
        <mxCell id="wX_KruKhVf-HRECVG9bM-15" value="showError()" style="html=1;verticalAlign=bottom;endArrow=block;labelBackgroundColor=none;fontFamily=Verdana;fontSize=12;elbow=vertical;exitX=0.174;exitY=0.544;exitDx=0;exitDy=0;exitPerimeter=0;" edge="1" parent="wX_KruKhVf-HRECVG9bM-1">
          <mxGeometry relative="1" as="geometry">
            <mxPoint x="-732.26" y="552.6800000000001" as="sourcePoint" />
            <mxPoint x="-846.2692307692306" y="552.6800000000001" as="targetPoint" />
          </mxGeometry>
        </mxCell>
        <mxCell id="wX_KruKhVf-HRECVG9bM-16" value="data valid" style="html=1;verticalAlign=bottom;endArrow=block;labelBackgroundColor=none;fontFamily=Verdana;fontSize=12;elbow=vertical;exitX=0.829;exitY=0.332;exitDx=0;exitDy=0;exitPerimeter=0;entryX=0.145;entryY=0.586;entryDx=0;entryDy=0;entryPerimeter=0;" edge="1" parent="wX_KruKhVf-HRECVG9bM-1" target="wX_KruKhVf-HRECVG9bM-8">
          <mxGeometry relative="1" as="geometry">
            <mxPoint x="-594" y="488.9999999999999" as="sourcePoint" />
            <mxPoint x="-460" y="490" as="targetPoint" />
          </mxGeometry>
        </mxCell>
        <mxCell id="wX_KruKhVf-HRECVG9bM-17" value="" style="shape=umlLifeline;perimeter=lifelinePerimeter;whiteSpace=wrap;html=1;container=1;dropTarget=0;collapsible=0;recursiveResize=0;outlineConnect=0;portConstraint=eastwest;newEdgeStyle={&quot;curved&quot;:0,&quot;rounded&quot;:0};participant=umlActor;" vertex="1" parent="wX_KruKhVf-HRECVG9bM-1">
          <mxGeometry x="-856" y="360" width="20" height="230" as="geometry" />
        </mxCell>
        <mxCell id="wX_KruKhVf-HRECVG9bM-18" value="validateInput()" style="edgeStyle=elbowEdgeStyle;endArrow=classic;html=1;rounded=0;endSize=8;startSize=8;entryX=0.998;entryY=0.183;entryDx=0;entryDy=0;entryPerimeter=0;" edge="1" parent="wX_KruKhVf-HRECVG9bM-1">
          <mxGeometry x="-0.0048" y="10" width="50" height="50" relative="1" as="geometry">
            <mxPoint x="-589" y="420" as="sourcePoint" />
            <mxPoint x="-594" y="455.68" as="targetPoint" />
            <Array as="points">
              <mxPoint x="-538.98" y="454.31" />
            </Array>
            <mxPoint as="offset" />
          </mxGeometry>
        </mxCell>
        <mxCell id="qr8qLED9pqzAawIL_cE4-0" value="saveData()" style="edgeStyle=elbowEdgeStyle;endArrow=classic;html=1;rounded=0;endSize=8;startSize=8;entryX=0.998;entryY=0.183;entryDx=0;entryDy=0;entryPerimeter=0;" edge="1" parent="wX_KruKhVf-HRECVG9bM-1">
          <mxGeometry x="-0.0048" y="10" width="50" height="50" relative="1" as="geometry">
            <mxPoint x="-450" y="510" as="sourcePoint" />
            <mxPoint x="-455" y="545.6800000000001" as="targetPoint" />
            <Array as="points">
              <mxPoint x="-399.98" y="544.31" />
            </Array>
            <mxPoint as="offset" />
          </mxGeometry>
        </mxCell>
      </root>
    </mxGraphModel>
  </diagram>
</mxfile>
